<svg width="1600" height="1000" viewBox="0 0 1600 1000" fill="none" xmlns="http://www.w3.org/2000/svg">
  <rect width="1600" height="1000" fill="#020617"/>
  <rect width="1600" height="1000" fill="url(#night)"/>
  <path d="M0 710C148 645 272 620 392 628C553 640 694 741 839 747C984 753 1104 678 1252 653C1365 635 1483 647 1600 694V1000H0V710Z" fill="#0A3D91"/>
  <path d="M0 798C188 755 341 748 481 764C643 783 799 857 972 857C1137 857 1294 786 1439 770C1497 764 1550 765 1600 775V1000H0V798Z" fill="#16A34A"/>
  <rect x="212" y="188" width="20" height="402" rx="10" fill="#CBD5E1"/>
  <rect x="1368" y="188" width="20" height="402" rx="10" fill="#CBD5E1"/>
  <rect x="182" y="590" width="80" height="20" rx="10" fill="#CBD5E1"/>
  <rect x="1338" y="590" width="80" height="20" rx="10" fill="#CBD5E1"/>
  <path d="M222 212L126 438" stroke="#F8FAFC" stroke-width="22" stroke-linecap="round"/>
  <path d="M222 256L112 520" stroke="#FDE68A" stroke-width="18" stroke-linecap="round"/>
  <path d="M1378 212L1474 438" stroke="#F8FAFC" stroke-width="22" stroke-linecap="round"/>
  <path d="M1378 256L1488 520" stroke="#FDE68A" stroke-width="18" stroke-linecap="round"/>
  <rect x="754" y="626" width="18" height="142" rx="9" fill="#F8FAFC"/>
  <rect x="786" y="626" width="18" height="142" rx="9" fill="#F8FAFC"/>
  <rect x="818" y="626" width="18" height="142" rx="9" fill="#F8FAFC"/>
  <path d="M680 769H910" stroke="#F8FAFC" stroke-width="10" stroke-linecap="round"/>
  <circle cx="909" cy="587" r="33" fill="#F97316"/>
  <path d="M954 554L995 520" stroke="#F8FAFC" stroke-width="10" stroke-linecap="round"/>
  <defs>
    <linearGradient id="night" x1="800" y1="0" x2="800" y2="1000" gradientUnits="userSpaceOnUse">
      <stop stop-color="#0F172A"/>
      <stop offset="0.45" stop-color="#082F49"/>
      <stop offset="1" stop-color="#052E16"/>
    </linearGradient>
  </defs>
</svg>
