<svg width="1600" height="1000" viewBox="0 0 1600 1000" fill="none" xmlns="http://www.w3.org/2000/svg">
  <rect width="1600" height="1000" fill="#081B3A"/>
  <rect width="1600" height="1000" fill="url(#sky)"/>
  <ellipse cx="1170" cy="190" rx="118" ry="118" fill="#FDBA74"/>
  <path d="M0 652C154 586 281 556 381 562C512 569 657 651 774 646C921 640 998 541 1139 528C1267 515 1392 571 1600 672V1000H0V652Z" fill="#123F86"/>
  <path d="M0 712C188 653 327 647 440 672C565 700 698 778 845 776C1025 773 1132 636 1290 627C1405 620 1508 661 1600 714V1000H0V712Z" fill="#0F5FDB"/>
  <path d="M0 785C150 742 280 725 392 735C520 747 662 827 816 834C982 842 1128 791 1275 780C1386 771 1497 785 1600 816V1000H0V785Z" fill="#16A34A"/>
  <rect x="430" y="600" width="18" height="170" rx="9" fill="#F8FAFC"/>
  <rect x="462" y="600" width="18" height="170" rx="9" fill="#F8FAFC"/>
  <rect x="494" y="600" width="18" height="170" rx="9" fill="#F8FAFC"/>
  <path d="M356 770H584" stroke="#F8FAFC" stroke-width="10" stroke-linecap="round"/>
  <circle cx="979" cy="561" r="37" fill="#F97316"/>
  <path d="M1030 526L1072 489" stroke="#F8FAFC" stroke-width="10" stroke-linecap="round"/>
  <path d="M928 594L879 640" stroke="#F8FAFC" stroke-width="10" stroke-linecap="round"/>
  <defs>
    <linearGradient id="sky" x1="800" y1="0" x2="800" y2="1000" gradientUnits="userSpaceOnUse">
      <stop stop-color="#1E3A8A"/>
      <stop offset="0.56" stop-color="#0EA5E9"/>
      <stop offset="1" stop-color="#022C22"/>
    </linearGradient>
  </defs>
</svg>
